<svg width="22" height="21" viewBox="0 0 22 21" fill="none" xmlns="http://www.w3.org/2000/svg">
<path d="M16.7139 11.4967L16.2251 11.0433L16.7139 11.4967ZM10.4285 5.21126L10.8819 5.70006L10.4285 5.21126ZM19.6982 3.90858L20.3593 3.99504L19.6982 3.90858ZM18.0166 2.22693L18.103 2.88797L18.0166 2.22693ZM6.21687 11.3559L6.81547 11.6494L6.21687 11.3559ZM10.5692 15.7083L10.2758 15.1097L10.5692 15.7083ZM7.75725 9.13959C7.4969 8.87924 7.07479 8.87924 6.81444 9.13959C6.5541 9.39994 6.5541 9.82205 6.81444 10.0824L7.75725 9.13959ZM11.8428 15.1107C12.1031 15.3711 12.5252 15.3711 12.7856 15.1107C13.0459 14.8504 13.0459 14.4283 12.7856 14.1679L11.8428 15.1107ZM6.18591 16.6821C6.44626 16.4217 6.44626 15.9996 6.18591 15.7393C5.92556 15.4789 5.50345 15.4789 5.2431 15.7393L6.18591 16.6821ZM2.72894 18.2534C2.46859 18.5138 2.46859 18.9359 2.72894 19.1962C2.98929 19.4566 3.4114 19.4566 3.67175 19.1962L2.72894 18.2534ZM4.30029 14.7964C4.56064 14.5361 4.56064 14.114 4.30029 13.8536C4.03994 13.5933 3.61783 13.5933 3.35748 13.8536L4.30029 14.7964ZM2.1004 15.1107C1.84005 15.3711 1.84005 15.7932 2.1004 16.0535C2.36075 16.3139 2.78286 16.3139 3.04321 16.0535L2.1004 15.1107ZM8.07152 18.5677C8.33187 18.3073 8.33187 17.8852 8.07152 17.6249C7.81117 17.3645 7.38906 17.3645 7.12871 17.6249L8.07152 18.5677ZM5.87164 18.882C5.61129 19.1423 5.61129 19.5644 5.87164 19.8248C6.13199 20.0851 6.55409 20.0851 6.81445 19.8248L5.87164 18.882ZM9.86286 18.8505L10.5228 18.7562L9.86286 18.8505ZM14.4512 15.7707L15.1112 15.6764L14.4512 15.7707ZM3.07462 12.0623L3.1689 11.4024L3.1689 11.4024L3.07462 12.0623ZM6.15446 7.47398L6.06018 8.13395L6.06018 8.13395L6.15446 7.47398ZM9.11098 14.8932L7.032 12.8142L6.08919 13.757L8.16818 15.836L9.11098 14.8932ZM16.2251 11.0433C14.5419 12.8582 11.8088 14.3581 10.2758 15.1097L10.8627 16.3069C12.4095 15.5486 15.339 13.9594 17.2027 11.95L16.2251 11.0433ZM6.81547 11.6494C7.56706 10.1163 9.06698 7.38329 10.8819 5.70006L9.97517 4.72246C7.96573 6.58615 6.37661 9.51562 5.61827 11.0625L6.81547 11.6494ZM19.0372 3.82213C18.7671 5.88732 18.0495 9.07626 16.2251 11.0433L17.2027 11.95C19.332 9.65413 20.085 6.09193 20.3593 3.99504L19.0372 3.82213ZM10.8819 5.70006C12.8489 3.87569 16.0378 3.15807 18.103 2.88797L17.9301 1.56589C15.8332 1.84014 12.271 2.59312 9.97517 4.72246L10.8819 5.70006ZM20.3593 3.99504C20.5469 2.56048 19.3647 1.37827 17.9301 1.56589L18.103 2.88797C18.6692 2.81392 19.1113 3.25594 19.0372 3.82213L20.3593 3.99504ZM7.032 12.8142C6.70918 12.4914 6.6303 12.0271 6.81547 11.6494L5.61827 11.0625C5.16654 11.9839 5.38893 13.0567 6.08919 13.757L7.032 12.8142ZM8.16818 15.836C8.86843 16.5362 9.94126 16.7586 10.8627 16.3069L10.2758 15.1097C9.89805 15.2949 9.43381 15.216 9.11098 14.8932L8.16818 15.836ZM6.81444 10.0824L11.8428 15.1107L12.7856 14.1679L7.75725 9.13959L6.81444 10.0824ZM5.2431 15.7393L2.72894 18.2534L3.67175 19.1962L6.18591 16.6821L5.2431 15.7393ZM3.35748 13.8536L2.1004 15.1107L3.04321 16.0535L4.30029 14.7964L3.35748 13.8536ZM7.12871 17.6249L5.87164 18.882L6.81445 19.8248L8.07152 18.5677L7.12871 17.6249ZM12.157 6.31117C11.2024 7.26578 11.2024 8.81352 12.157 9.76813L13.0998 8.82532C12.6659 8.39141 12.6659 7.68789 13.0998 7.25397L12.157 6.31117ZM12.157 9.76813C13.1116 10.7227 14.6594 10.7227 15.614 9.76813L14.6712 8.82532C14.2373 9.25924 13.5338 9.25924 13.0998 8.82532L12.157 9.76813ZM15.614 9.76813C16.5686 8.81352 16.5686 7.26578 15.614 6.31117L14.6712 7.25397C15.1051 7.68789 15.1051 8.39141 14.6712 8.82532L15.614 9.76813ZM15.614 6.31117C14.6594 5.35655 13.1116 5.35655 12.157 6.31117L13.0998 7.25397C13.5338 6.82006 14.2373 6.82006 14.6712 7.25397L15.614 6.31117ZM13.7284 16.0535L10.9 18.882L11.8428 19.8248L14.6712 16.9963L13.7284 16.0535ZM10.5228 18.7562L10.1457 16.1164L8.82577 16.3049L9.20289 18.9448L10.5228 18.7562ZM13.5398 14.1051L13.7912 15.865L15.1112 15.6764L14.8597 13.9165L13.5398 14.1051ZM10.9 18.882C10.7705 19.0114 10.5487 18.9375 10.5228 18.7562L9.20289 18.9448C9.38417 20.2138 10.9364 20.7312 11.8428 19.8248L10.9 18.882ZM14.6712 16.9963C15.0174 16.6501 15.1804 16.1611 15.1112 15.6764L13.7912 15.865C13.8011 15.9342 13.7778 16.0041 13.7284 16.0535L14.6712 16.9963ZM4.92881 7.25399L2.10038 10.0824L3.04319 11.0252L5.87162 8.1968L4.92881 7.25399ZM2.98034 12.7223L5.6202 13.0994L5.80876 11.7795L3.1689 11.4024L2.98034 12.7223ZM8.00865 7.06543L6.24874 6.81402L6.06018 8.13395L7.82009 8.38536L8.00865 7.06543ZM2.10038 10.0824C1.19398 10.9888 1.71137 12.541 2.98034 12.7223L3.1689 11.4024C2.98762 11.3765 2.9137 11.1547 3.04319 11.0252L2.10038 10.0824ZM5.87162 8.1968C5.92108 8.14734 5.99094 8.12406 6.06018 8.13395L6.24874 6.81402C5.76404 6.74477 5.27502 6.90778 4.92881 7.25399L5.87162 8.1968Z" fill="#FEFEFD"/>
</svg>
