<svg width="16" height="16" viewBox="0 0 16 16" fill="none" xmlns="http://www.w3.org/2000/svg">
<path fill-rule="evenodd" clip-rule="evenodd" d="M7.67485 1.58813C4.25152 1.58813 1.48438 4.35528 1.48438 7.77861C1.48438 11.2019 4.25152 13.9691 7.67485 13.9691C11.0982 13.9691 13.8653 11.2019 13.8653 7.77861C13.8653 4.35528 11.0982 1.58813 7.67485 1.58813ZM7.67485 12.731C4.94485 12.731 2.72247 10.5086 2.72247 7.77861C2.72247 5.04861 4.94485 2.82623 7.67485 2.82623C10.4049 2.82623 12.6272 5.04861 12.6272 7.77861C12.6272 10.5086 10.4049 12.731 7.67485 12.731ZM7.67485 6.90575L9.89723 4.68337L10.7701 5.55623L8.54771 7.77861L10.7701 10.001L9.89723 10.8738L7.67485 8.65147L5.45247 10.8738L4.57961 10.001L6.80199 7.77861L4.57961 5.55623L5.45247 4.68337L7.67485 6.90575Z" fill="#539BBB"/>
</svg>
