<svg width="22" height="21" viewBox="0 0 22 21" fill="none" xmlns="http://www.w3.org/2000/svg">
<path d="M16.7144 11.5522L16.2256 11.0988L16.7144 11.5522ZM10.429 5.2668L10.8823 5.7556L10.429 5.2668ZM19.6987 3.96412L20.3598 4.05058L19.6987 3.96412ZM18.0171 2.28247L18.1035 2.94351L18.0171 2.28247ZM6.21736 11.4115L6.81596 11.7049L6.21736 11.4115ZM10.5697 15.7638L10.2762 15.1652L10.5697 15.7638ZM7.75774 9.19513C7.49739 8.93478 7.07528 8.93478 6.81493 9.19513C6.55458 9.45548 6.55458 9.87759 6.81493 10.1379L7.75774 9.19513ZM11.8432 15.1663C12.1036 15.4266 12.5257 15.4266 12.7861 15.1663C13.0464 14.9059 13.0464 14.4838 12.7861 14.2234L11.8432 15.1663ZM6.18639 16.7376C6.44674 16.4773 6.44674 16.0551 6.18639 15.7948C5.92604 15.5344 5.50393 15.5344 5.24358 15.7948L6.18639 16.7376ZM2.72943 18.309C2.46908 18.5693 2.46908 18.9914 2.72943 19.2518C2.98978 19.5121 3.41189 19.5121 3.67224 19.2518L2.72943 18.309ZM4.30078 14.852C4.56113 14.5916 4.56113 14.1695 4.30078 13.9092C4.04043 13.6488 3.61832 13.6488 3.35797 13.9092L4.30078 14.852ZM2.10089 15.1663C1.84054 15.4266 1.84054 15.8487 2.10089 16.1091C2.36124 16.3694 2.78335 16.3694 3.0437 16.1091L2.10089 15.1663ZM8.07201 18.6232C8.33236 18.3629 8.33236 17.9408 8.07201 17.6804C7.81166 17.4201 7.38955 17.4201 7.1292 17.6804L8.07201 18.6232ZM5.87212 18.9375C5.61177 19.1978 5.61178 19.62 5.87213 19.8803C6.13247 20.1407 6.55458 20.1407 6.81493 19.8803L5.87212 18.9375ZM9.86335 18.9061L10.5233 18.8118L9.86335 18.9061ZM14.4517 15.8262L15.1117 15.7319L14.4517 15.8262ZM3.07511 12.1179L3.16939 11.4579L3.16939 11.4579L3.07511 12.1179ZM6.15495 7.52952L6.06067 8.18949L6.06067 8.18949L6.15495 7.52952ZM9.11147 14.9487L7.03249 12.8697L6.08968 13.8125L8.16866 15.8915L9.11147 14.9487ZM16.2256 11.0988C14.5424 12.9137 11.8093 14.4137 10.2762 15.1652L10.8632 16.3624C12.41 15.6041 15.3395 14.015 17.2032 12.0055L16.2256 11.0988ZM6.81596 11.7049C7.56754 10.1719 9.06747 7.43883 10.8823 5.7556L9.97566 4.778C7.96622 6.64169 6.3771 9.57116 5.61876 11.118L6.81596 11.7049ZM19.0377 3.87767C18.7676 5.94286 18.05 9.1318 16.2256 11.0988L17.2032 12.0055C19.3325 9.70967 20.0855 6.14747 20.3598 4.05058L19.0377 3.87767ZM10.8823 5.7556C12.8494 3.93123 16.0383 3.21361 18.1035 2.94351L17.9306 1.62143C15.8337 1.89568 12.2715 2.64866 9.97566 4.778L10.8823 5.7556ZM20.3598 4.05058C20.5474 2.61602 19.3652 1.43381 17.9306 1.62143L18.1035 2.94351C18.6697 2.86946 19.1117 3.31148 19.0377 3.87767L20.3598 4.05058ZM7.03249 12.8697C6.70966 12.5469 6.63078 12.0827 6.81596 11.7049L5.61876 11.118C5.16703 12.0394 5.38942 13.1123 6.08968 13.8125L7.03249 12.8697ZM8.16866 15.8915C8.86892 16.5918 9.94175 16.8142 10.8632 16.3624L10.2762 15.1652C9.89853 15.3504 9.4343 15.2715 9.11147 14.9487L8.16866 15.8915ZM6.81493 10.1379L11.8432 15.1663L12.7861 14.2234L7.75774 9.19513L6.81493 10.1379ZM5.24358 15.7948L2.72943 18.309L3.67224 19.2518L6.18639 16.7376L5.24358 15.7948ZM3.35797 13.9092L2.10089 15.1663L3.0437 16.1091L4.30078 14.852L3.35797 13.9092ZM7.1292 17.6804L5.87212 18.9375L6.81493 19.8803L8.07201 18.6232L7.1292 17.6804ZM12.1575 6.36671C11.2029 7.32132 11.2029 8.86906 12.1575 9.82367L13.1003 8.88086C12.6664 8.44695 12.6664 7.74343 13.1003 7.30952L12.1575 6.36671ZM12.1575 9.82367C13.1121 10.7783 14.6599 10.7783 15.6145 9.82367L14.6717 8.88087C14.2378 9.31478 13.5342 9.31478 13.1003 8.88086L12.1575 9.82367ZM15.6145 9.82367C16.5691 8.86906 16.5691 7.32132 15.6145 6.36671L14.6717 7.30952C15.1056 7.74343 15.1056 8.44695 14.6717 8.88087L15.6145 9.82367ZM15.6145 6.36671C14.6599 5.41209 13.1121 5.41209 12.1575 6.36671L13.1003 7.30952C13.5342 6.8756 14.2378 6.8756 14.6717 7.30952L15.6145 6.36671ZM13.7289 16.1091L10.9004 18.9375L11.8432 19.8803L14.6717 17.0519L13.7289 16.1091ZM10.5233 18.8118L10.1462 16.1719L8.82626 16.3605L9.20338 19.0003L10.5233 18.8118ZM13.5403 14.1606L13.7917 15.9205L15.1117 15.7319L14.8602 13.972L13.5403 14.1606ZM10.9004 18.9375C10.771 19.067 10.5492 18.9931 10.5233 18.8118L9.20338 19.0003C9.38466 20.2693 10.9368 20.7867 11.8432 19.8803L10.9004 18.9375ZM14.6717 17.0519C15.0179 16.7057 15.1809 16.2166 15.1117 15.7319L13.7917 15.9205C13.8016 15.9897 13.7783 16.0596 13.7289 16.1091L14.6717 17.0519ZM4.9293 7.30954L2.10087 10.138L3.04368 11.0808L5.87211 8.25234L4.9293 7.30954ZM2.98083 12.7778L5.62069 13.155L5.80925 11.835L3.16939 11.4579L2.98083 12.7778ZM8.00914 7.12097L6.24923 6.86956L6.06067 8.18949L7.82058 8.44091L8.00914 7.12097ZM2.10087 10.138C1.19447 11.0444 1.71186 12.5965 2.98083 12.7778L3.16939 11.4579C2.9881 11.432 2.91419 11.2103 3.04368 11.0808L2.10087 10.138ZM5.87211 8.25234C5.92156 8.20288 5.99142 8.1796 6.06067 8.18949L6.24923 6.86956C5.76453 6.80031 5.27551 6.96332 4.9293 7.30954L5.87211 8.25234Z" fill="#FEFEFD"/>
</svg>
