<svg width="22" height="21" viewBox="0 0 22 21" fill="none" xmlns="http://www.w3.org/2000/svg">
<path d="M16.1948 8.57971L18.0839 9.60165L18.4794 9.82384C19.322 10.2972 19.322 11.5177 18.4794 11.9911L13.1135 15.0058C11.8691 15.705 10.3536 15.705 9.10914 15.0058L3.74326 11.9911C2.90068 11.5177 2.90068 10.2972 3.74326 9.82384L4.13875 9.60165L5.92319 8.57971M16.6056 13.1298L18.3228 13.9942C19.2084 14.44 19.2368 15.7019 18.3722 16.1877L13.1135 19.1422C11.8691 19.8414 10.3536 19.8414 9.10914 19.1422L3.92715 16.2308C3.04768 15.7367 3.09614 14.4468 4.01017 14.021L5.92319 13.1298M13.1135 10.6098L18.4794 7.59511C19.322 7.12173 19.322 5.90128 18.4794 5.4279L13.1135 2.41318C11.8691 1.714 10.3536 1.714 9.10914 2.41317L3.74326 5.4279C2.90069 5.90128 2.90068 7.12172 3.74326 7.59511L9.10914 10.6098C10.3536 11.309 11.8691 11.309 13.1135 10.6098Z" stroke="#FEFEFE" stroke-width="1.33333"/>
</svg>
