<svg width="22" height="21" viewBox="0 0 22 21" fill="none" xmlns="http://www.w3.org/2000/svg">
<path d="M16.7144 11.4967L16.2256 11.0433L16.7144 11.4967ZM10.429 5.21126L10.8823 5.70006L10.429 5.21126ZM19.6987 3.90858L20.3598 3.99504L19.6987 3.90858ZM18.0171 2.22693L18.1035 2.88797L18.0171 2.22693ZM6.21736 11.3559L6.81596 11.6494L6.21736 11.3559ZM10.5697 15.7083L10.2762 15.1097L10.5697 15.7083ZM7.75774 9.13959C7.49739 8.87924 7.07528 8.87924 6.81493 9.13959C6.55458 9.39994 6.55458 9.82205 6.81493 10.0824L7.75774 9.13959ZM11.8432 15.1107C12.1036 15.3711 12.5257 15.3711 12.7861 15.1107C13.0464 14.8504 13.0464 14.4283 12.7861 14.1679L11.8432 15.1107ZM6.18639 16.6821C6.44674 16.4217 6.44674 15.9996 6.18639 15.7393C5.92604 15.4789 5.50393 15.4789 5.24358 15.7393L6.18639 16.6821ZM2.72943 18.2534C2.46908 18.5138 2.46908 18.9359 2.72943 19.1962C2.98978 19.4566 3.41189 19.4566 3.67224 19.1962L2.72943 18.2534ZM4.30078 14.7964C4.56113 14.5361 4.56113 14.114 4.30078 13.8536C4.04043 13.5933 3.61832 13.5933 3.35797 13.8536L4.30078 14.7964ZM2.10089 15.1107C1.84054 15.3711 1.84054 15.7932 2.10089 16.0535C2.36124 16.3139 2.78335 16.3139 3.0437 16.0535L2.10089 15.1107ZM8.07201 18.5677C8.33236 18.3073 8.33236 17.8852 8.07201 17.6249C7.81166 17.3645 7.38955 17.3645 7.1292 17.6249L8.07201 18.5677ZM5.87212 18.882C5.61177 19.1423 5.61178 19.5644 5.87213 19.8248C6.13247 20.0851 6.55458 20.0851 6.81493 19.8248L5.87212 18.882ZM9.86335 18.8505L10.5233 18.7562L9.86335 18.8505ZM14.4517 15.7707L15.1117 15.6764L14.4517 15.7707ZM3.07511 12.0623L3.16939 11.4024L3.16939 11.4024L3.07511 12.0623ZM6.15495 7.47398L6.06067 8.13395L6.06067 8.13395L6.15495 7.47398ZM9.11147 14.8932L7.03249 12.8142L6.08968 13.757L8.16866 15.836L9.11147 14.8932ZM16.2256 11.0433C14.5424 12.8582 11.8093 14.3581 10.2762 15.1097L10.8632 16.3069C12.41 15.5486 15.3395 13.9594 17.2032 11.95L16.2256 11.0433ZM6.81596 11.6494C7.56754 10.1163 9.06747 7.38329 10.8823 5.70006L9.97566 4.72246C7.96622 6.58615 6.3771 9.51562 5.61876 11.0625L6.81596 11.6494ZM19.0377 3.82213C18.7676 5.88732 18.05 9.07626 16.2256 11.0433L17.2032 11.95C19.3325 9.65413 20.0855 6.09193 20.3598 3.99504L19.0377 3.82213ZM10.8823 5.70006C12.8494 3.87569 16.0383 3.15807 18.1035 2.88797L17.9306 1.56589C15.8337 1.84014 12.2715 2.59312 9.97566 4.72246L10.8823 5.70006ZM20.3598 3.99504C20.5474 2.56048 19.3652 1.37827 17.9306 1.56589L18.1035 2.88797C18.6697 2.81392 19.1117 3.25594 19.0377 3.82213L20.3598 3.99504ZM7.03249 12.8142C6.70966 12.4914 6.63078 12.0271 6.81596 11.6494L5.61876 11.0625C5.16703 11.9839 5.38942 13.0567 6.08968 13.757L7.03249 12.8142ZM8.16866 15.836C8.86892 16.5362 9.94175 16.7586 10.8632 16.3069L10.2762 15.1097C9.89853 15.2949 9.4343 15.216 9.11147 14.8932L8.16866 15.836ZM6.81493 10.0824L11.8432 15.1107L12.7861 14.1679L7.75774 9.13959L6.81493 10.0824ZM5.24358 15.7393L2.72943 18.2534L3.67224 19.1962L6.18639 16.6821L5.24358 15.7393ZM3.35797 13.8536L2.10089 15.1107L3.0437 16.0535L4.30078 14.7964L3.35797 13.8536ZM7.1292 17.6249L5.87212 18.882L6.81493 19.8248L8.07201 18.5677L7.1292 17.6249ZM12.1575 6.31117C11.2029 7.26578 11.2029 8.81352 12.1575 9.76813L13.1003 8.82532C12.6664 8.39141 12.6664 7.68789 13.1003 7.25397L12.1575 6.31117ZM12.1575 9.76813C13.1121 10.7227 14.6599 10.7227 15.6145 9.76813L14.6717 8.82532C14.2378 9.25924 13.5342 9.25924 13.1003 8.82532L12.1575 9.76813ZM15.6145 9.76813C16.5691 8.81352 16.5691 7.26578 15.6145 6.31117L14.6717 7.25397C15.1056 7.68789 15.1056 8.39141 14.6717 8.82532L15.6145 9.76813ZM15.6145 6.31117C14.6599 5.35655 13.1121 5.35655 12.1575 6.31117L13.1003 7.25397C13.5342 6.82006 14.2378 6.82006 14.6717 7.25397L15.6145 6.31117ZM13.7289 16.0535L10.9004 18.882L11.8432 19.8248L14.6717 16.9963L13.7289 16.0535ZM10.5233 18.7562L10.1462 16.1164L8.82626 16.3049L9.20338 18.9448L10.5233 18.7562ZM13.5403 14.1051L13.7917 15.865L15.1117 15.6764L14.8602 13.9165L13.5403 14.1051ZM10.9004 18.882C10.771 19.0114 10.5492 18.9375 10.5233 18.7562L9.20338 18.9448C9.38466 20.2138 10.9368 20.7312 11.8432 19.8248L10.9004 18.882ZM14.6717 16.9963C15.0179 16.6501 15.1809 16.1611 15.1117 15.6764L13.7917 15.865C13.8016 15.9342 13.7783 16.0041 13.7289 16.0535L14.6717 16.9963ZM4.9293 7.25399L2.10087 10.0824L3.04368 11.0252L5.87211 8.1968L4.9293 7.25399ZM2.98083 12.7223L5.62069 13.0994L5.80925 11.7795L3.16939 11.4024L2.98083 12.7223ZM8.00914 7.06543L6.24923 6.81402L6.06067 8.13395L7.82058 8.38536L8.00914 7.06543ZM2.10087 10.0824C1.19447 10.9888 1.71186 12.541 2.98083 12.7223L3.16939 11.4024C2.9881 11.3765 2.91419 11.1547 3.04368 11.0252L2.10087 10.0824ZM5.87211 8.1968C5.92156 8.14734 5.99142 8.12406 6.06067 8.13395L6.24923 6.81402C5.76453 6.74477 5.27551 6.90778 4.9293 7.25399L5.87211 8.1968Z" fill="#FEFEFD"/>
</svg>
