<svg width="22" height="21" viewBox="0 0 22 21" fill="none" xmlns="http://www.w3.org/2000/svg">
<path d="M2.69043 9.93987C2.69043 8.83988 3.19414 7.80045 4.05751 7.11885L8.99953 3.21725C10.3053 2.18634 12.148 2.18634 13.4538 3.21724L18.3958 7.11884C19.2592 7.80045 19.7629 8.83988 19.7629 9.93987V15.8358C19.7629 17.8208 18.1537 19.43 16.1687 19.43H14.8209C14.3246 19.43 13.9223 19.0277 13.9223 18.5314V15.8358C13.9223 14.8433 13.1177 14.0387 12.1252 14.0387H10.3281C9.3356 14.0387 8.53101 14.8433 8.53101 15.8358V18.5315C8.53101 19.0277 8.12871 19.43 7.63246 19.43H6.28463C4.29961 19.43 2.69043 17.8208 2.69043 15.8358L2.69043 9.93987Z" stroke="#FEFEFD" stroke-width="1.34783"/>
</svg>
