<svg width="16" height="16" viewBox="0 0 16 16" fill="none" xmlns="http://www.w3.org/2000/svg">
<path fill-rule="evenodd" clip-rule="evenodd" d="M7.67485 2.08728C4.25152 2.08728 1.48438 4.85442 1.48438 8.27776C1.48438 11.7011 4.25152 14.4682 7.67485 14.4682C11.0982 14.4682 13.8653 11.7011 13.8653 8.27776C13.8653 4.85442 11.0982 2.08728 7.67485 2.08728ZM7.67485 13.2301C4.94485 13.2301 2.72247 11.0078 2.72247 8.27776C2.72247 5.54776 4.94485 3.32538 7.67485 3.32538C10.4049 3.32538 12.6272 5.54776 12.6272 8.27776C12.6272 11.0078 10.4049 13.2301 7.67485 13.2301ZM7.67485 7.4049L9.89723 5.18252L10.7701 6.05538L8.54771 8.27776L10.7701 10.5001L9.89723 11.373L7.67485 9.15061L5.45247 11.373L4.57961 10.5001L6.80199 8.27776L4.57961 6.05538L5.45247 5.18252L7.67485 7.4049Z" fill="#539BBB"/>
</svg>
