<svg width="15" height="16" viewBox="0 0 15 16" fill="none" xmlns="http://www.w3.org/2000/svg">
<path fill-rule="evenodd" clip-rule="evenodd" d="M9.14524 9.06404L12.6924 12.6112L11.77 13.5336L8.22285 9.98642C7.56047 10.4631 6.7619 10.754 5.88904 10.754C3.66666 10.754 1.86523 8.95261 1.86523 6.73023C1.86523 4.50785 3.66666 2.70642 5.88904 2.70642C8.11143 2.70642 9.91285 4.50785 9.91285 6.73023C9.91285 7.60309 9.6219 8.40166 9.14524 9.06404ZM5.88904 3.94452C4.34762 3.94452 3.10333 5.1888 3.10333 6.73023C3.10333 8.27166 4.34762 9.51595 5.88904 9.51595C7.43047 9.51595 8.67476 8.27166 8.67476 6.73023C8.67476 5.1888 7.43047 3.94452 5.88904 3.94452Z" fill="#539BBB"/>
</svg>
