<svg width="22" height="21" viewBox="0 0 22 21" fill="none" xmlns="http://www.w3.org/2000/svg">
<path d="M16.1948 8.63525L18.0839 9.65719L18.4794 9.87938C19.322 10.3528 19.322 11.5732 18.4794 12.0466L13.1135 15.0613C11.8691 15.7605 10.3536 15.7605 9.10914 15.0613L3.74326 12.0466C2.90068 11.5732 2.90068 10.3528 3.74326 9.87938L4.13875 9.65719L5.92319 8.63525M16.6056 13.1853L18.3228 14.0497C19.2084 14.4955 19.2368 15.7575 18.3722 16.2432L13.1135 19.1977C11.8691 19.8969 10.3536 19.8969 9.10914 19.1977L3.92715 16.2863C3.04768 15.7922 3.09614 14.5023 4.01017 14.0765L5.92319 13.1853M13.1135 10.6654L18.4794 7.65065C19.322 7.17727 19.322 5.95683 18.4794 5.48344L13.1135 2.46872C11.8691 1.76954 10.3536 1.76954 9.10914 2.46872L3.74326 5.48344C2.90069 5.95682 2.90068 7.17727 3.74326 7.65065L9.10914 10.6654C10.3536 11.3645 11.8691 11.3646 13.1135 10.6654Z" stroke="#FEFEFE" stroke-width="1.33333"/>
</svg>
