<svg width="22" height="21" viewBox="0 0 22 21" fill="none" xmlns="http://www.w3.org/2000/svg">
<path d="M16.1943 8.57971L18.0834 9.60165L18.4789 9.82384C19.3215 10.2972 19.3215 11.5177 18.4789 11.9911L13.113 15.0058C11.8686 15.705 10.3531 15.705 9.10865 15.0058L3.74277 11.9911C2.90019 11.5177 2.9002 10.2972 3.74277 9.82384L4.13826 9.60165L5.9227 8.57971M16.6051 13.1298L18.3223 13.9942C19.2079 14.44 19.2363 15.7019 18.3717 16.1877L13.113 19.1422C11.8686 19.8414 10.3531 19.8414 9.10865 19.1422L3.92666 16.2308C3.04719 15.7367 3.09565 14.4468 4.00968 14.021L5.9227 13.1298M13.113 10.6098L18.4789 7.59511C19.3215 7.12173 19.3215 5.90128 18.4789 5.4279L13.113 2.41318C11.8686 1.714 10.3531 1.714 9.10866 2.41317L3.74278 5.4279C2.9002 5.90128 2.90019 7.12172 3.74277 7.59511L9.10865 10.6098C10.3531 11.309 11.8686 11.309 13.113 10.6098Z" stroke="#FEFEFE" stroke-width="1.33333"/>
</svg>
